
        <svg xmlns="http://www.w3.org/2000/svg" xmlns:xlink="http://www.w3.org/1999/xlink" version="1.1" width="3162.3024717904323" 
        height="848.4088100037275" viewBox="0 0 3162.3024717904323 848.4088100037275">
			
			<g transform="scale(8.115123589521623) translate(10, 10)">
				<defs id="SvgjsDefs1901"></defs><g id="SvgjsG1902" featureKey="symbolFeature-0" transform="matrix(1.388696312904358,0,0,1.388696312904358,-15.775573090407322,-27.160124424141074)" fill="#111111"><g xmlns="http://www.w3.org/2000/svg"><path d="M47.265,28.755c0.214-0.306,0.481-0.671,0.797-1.082c0.321-0.408,0.684-0.866,1.11-1.34   c0.419-0.479,0.897-0.977,1.423-1.479c0.53-0.497,1.102-1.005,1.732-1.479c0.632-0.468,1.305-0.927,2.037-1.295   c0.355-0.203,0.741-0.349,1.116-0.517c0.191-0.074,0.389-0.135,0.582-0.203l0.292-0.099l0.299-0.073   c0.789-0.226,1.608-0.278,2.401-0.275c0.396,0.044,0.79,0.039,1.171,0.127c0.191,0.034,0.381,0.068,0.569,0.102   c0.187,0.046,0.367,0.108,0.55,0.159c0.181,0.054,0.366,0.088,0.539,0.157c0.175,0.066,0.348,0.133,0.519,0.198   c0.349,0.114,0.667,0.285,0.985,0.435c0.158,0.077,0.318,0.146,0.469,0.229c0.148,0.089,0.293,0.176,0.437,0.263   c0.285,0.173,0.579,0.315,0.826,0.508c0.254,0.182,0.503,0.351,0.74,0.512c0.243,0.155,0.438,0.348,0.646,0.499   c0.405,0.316,0.765,0.591,1.037,0.845c0.561,0.491,0.898,0.763,0.898,0.763l0.079-0.068c0,0-0.245-0.354-0.707-0.956   c-0.119-0.146-0.235-0.324-0.392-0.49c-0.155-0.169-0.323-0.352-0.503-0.546c-0.35-0.401-0.798-0.802-1.298-1.231   c-0.24-0.227-0.533-0.411-0.819-0.626c-0.146-0.103-0.296-0.207-0.447-0.313c-0.156-0.1-0.324-0.188-0.489-0.283   c-0.333-0.19-0.674-0.391-1.056-0.532c-0.188-0.077-0.377-0.154-0.568-0.233c-0.191-0.077-0.399-0.12-0.602-0.182   c-0.206-0.052-0.411-0.111-0.621-0.155c-0.213-0.031-0.428-0.063-0.645-0.094l-0.325-0.046c-0.108-0.013-0.22-0.008-0.33-0.012   c-0.22-0.004-0.441-0.008-0.664-0.012c-0.885,0.056-1.785,0.161-2.631,0.452l-0.32,0.095l-0.311,0.121   c-0.205,0.082-0.414,0.158-0.615,0.246c-0.394,0.197-0.796,0.374-1.162,0.604c-0.756,0.425-1.435,0.937-2.067,1.45   c-0.626,0.522-1.196,1.064-1.705,1.606c-0.506,0.545-0.962,1.078-1.358,1.589c-0.403,0.505-0.743,0.989-1.042,1.42   c-0.295,0.433-0.541,0.817-0.733,1.14c-0.387,0.644-0.582,1.027-0.582,1.027l0.091,0.052   C46.619,29.732,46.836,29.366,47.265,28.755z"></path><path d="M84.613,44.248c-1.351,0.493-2.716,0.94-4.091,1.328c-1.372,0.39-2.764,0.72-4.147,0.875   c-0.689,0.079-1.38,0.1-2.021,0.027c-0.155-0.027-0.314-0.047-0.464-0.08l-0.216-0.062l-0.106-0.029l-0.078-0.036   c-0.053-0.023-0.105-0.043-0.159-0.062l-0.227-0.142l-0.057-0.036l-0.01-0.006l-0.066-0.065l-0.141-0.13   c-0.354-0.409-0.608-1.011-0.786-1.641c-0.176-0.636-0.293-1.311-0.362-1.999c-0.14-1.375-0.171-2.785-0.133-4.198   c0.037-1.414,0.137-2.832,0.275-4.247c0.07-0.708,0.149-1.415,0.239-2.12c0.088-0.703,0.178-1.418,0.284-2.102l0.222-1.427   l-1.448,0.233c-1.714,0.275-3.396,0.689-5.051,1.201c-0.832,0.242-1.642,0.551-2.456,0.846c-0.408,0.147-0.802,0.33-1.203,0.493   c-0.397,0.174-0.806,0.324-1.189,0.527c-0.775,0.389-1.564,0.753-2.31,1.202l-1.133,0.646l-1.092,0.714   c-0.358,0.246-0.738,0.461-1.079,0.732l-1.044,0.785c-0.712,0.504-1.341,1.111-2.006,1.674l-0.492,0.43l-0.461,0.463l-0.921,0.929   c-0.153,0.154-0.308,0.31-0.456,0.469l-0.42,0.5l-0.84,1.002l-0.419,0.501c-0.132,0.174-0.254,0.354-0.382,0.529l-0.758,1.064   c-0.526,0.688-0.957,1.47-1.413,2.224c-0.223,0.379-0.46,0.76-0.669,1.138l-0.559,1.131l-1.114,2.269   c-0.707,1.435-1.531,2.838-2.481,4.17l-0.348,0.504l-0.37,0.492c-0.249,0.326-0.49,0.658-0.744,0.981   c-0.521,0.638-1.028,1.286-1.579,1.903c-1.075,1.253-2.217,2.458-3.373,3.651c-1.167,1.184-2.369,2.338-3.6,3.463   c-1.237,1.119-2.484,2.23-3.76,3.313c-1.271,1.087-2.57,2.145-3.882,3.186c-1.306,1.05-2.632,2.077-3.972,3.088   c-1.343,1.007-2.688,2.014-4.054,2.993c-1.368,0.977-2.737,1.954-4.131,2.898c1.489-0.788,2.955-1.621,4.401-2.487   c1.447-0.864,2.885-1.747,4.296-2.672c1.413-0.922,2.821-1.854,4.203-2.825c1.379-0.976,2.747-1.97,4.091-2.998   c1.351-1.019,2.674-2.077,3.969-3.172c1.296-1.094,2.567-2.221,3.81-3.385c1.236-1.17,2.452-2.367,3.591-3.646   c0.584-0.624,1.13-1.288,1.689-1.939c0.273-0.331,0.536-0.674,0.805-1.011l0.4-0.507l0.381-0.524   c1.031-1.386,1.973-2.859,2.764-4.434l1.128-2.252l0.568-1.126c0.201-0.354,0.416-0.685,0.622-1.028   c0.423-0.679,0.805-1.374,1.309-2.02l0.714-0.985c0.12-0.163,0.235-0.33,0.359-0.49l0.395-0.463   c1.03-1.251,2.143-2.432,3.335-3.528c0.616-0.526,1.193-1.1,1.854-1.571l0.966-0.74c0.314-0.257,0.669-0.458,1.002-0.69   l1.014-0.676l1.055-0.612c0.692-0.427,1.43-0.772,2.154-1.143c0.359-0.192,0.737-0.345,1.106-0.516   c0.374-0.162,0.739-0.344,1.119-0.491c0.76-0.295,1.516-0.606,2.294-0.852c1.095-0.368,2.209-0.688,3.334-0.951   c-0.023,0.233-0.049,0.466-0.069,0.701c-0.063,0.728-0.115,1.456-0.158,2.185c-0.084,1.458-0.129,2.921-0.109,4.39   c0.007,0.734,0.04,1.472,0.087,2.209c0.047,0.738,0.133,1.479,0.252,2.219c0.118,0.741,0.285,1.485,0.536,2.226   c0.259,0.734,0.59,1.493,1.223,2.146l0.266,0.226l0.135,0.109l0.058,0.037l0.007,0.004l0.015,0.009l0.029,0.016l0.06,0.033   l0.239,0.132c0.114,0.048,0.229,0.094,0.345,0.136c0.453,0.161,0.836,0.201,1.243,0.238c0.797,0.045,1.554-0.048,2.288-0.18   c1.47-0.272,2.866-0.713,4.235-1.207c1.365-0.505,2.698-1.078,4.011-1.687c0.657-0.302,1.305-0.625,1.949-0.952   c0.644-0.328,1.283-0.663,1.911-1.02C87.31,43.236,85.967,43.759,84.613,44.248z"></path><path d="M63.814,55.305c-0.278-0.584-0.627-1.098-0.999-1.56c-0.74-0.927-1.559-1.667-2.341-2.3   c-0.783-0.634-1.544-1.149-2.228-1.586c-0.686-0.435-1.3-0.781-1.813-1.052c-1.023-0.548-1.638-0.801-1.638-0.801L54.747,48.1   c0,0,0.554,0.357,1.492,1.021c0.465,0.338,1.027,0.749,1.654,1.24c0.628,0.489,1.318,1.062,2.031,1.72   c0.708,0.661,1.444,1.411,2.084,2.281c0.627,0.865,1.185,1.881,1.227,2.937c0.063,1.076-0.447,2.162-1.224,3.107   c-0.778,0.953-1.789,1.775-2.828,2.555c-2.096,1.549-4.38,2.903-6.303,4.519c-0.954,0.808-1.833,1.688-2.417,2.719   c-0.292,0.512-0.499,1.062-0.597,1.612c-0.051,0.275-0.066,0.552-0.067,0.82c0.007,0.132,0.014,0.262,0.021,0.39   c0.018,0.133,0.036,0.265,0.053,0.395c0.177,1.026,0.773,1.854,1.441,2.338c0.67,0.493,1.357,0.729,1.919,0.877   c0.566,0.144,1.021,0.192,1.332,0.218c0.311,0.022,0.479,0.02,0.479,0.02v-0.105c0,0-0.162-0.003-0.467-0.037   c-0.304-0.038-0.75-0.104-1.297-0.266c-0.541-0.165-1.196-0.424-1.806-0.912c-0.607-0.481-1.111-1.25-1.237-2.191   c-0.011-0.115-0.022-0.231-0.034-0.35c-0.001-0.123-0.003-0.247-0.005-0.373c0.011-0.244,0.034-0.492,0.09-0.739   c0.108-0.493,0.313-0.982,0.601-1.443c0.575-0.924,1.425-1.746,2.376-2.499c1.912-1.513,4.217-2.791,6.406-4.308   c1.093-0.761,2.171-1.579,3.087-2.599c0.45-0.513,0.865-1.079,1.146-1.727c0.142-0.321,0.259-0.658,0.327-1.006   c0.032-0.176,0.063-0.342,0.077-0.533c0.02-0.211,0.018-0.313,0.018-0.519C64.299,56.548,64.097,55.884,63.814,55.305z"></path><path d="M78.098,30.972c3.146,0,5.707-2.561,5.707-5.708c0-3.146-2.561-5.706-5.707-5.706c-3.147,0-5.707,2.56-5.707,5.706   C72.391,28.411,74.95,30.972,78.098,30.972z M78.098,20.607c2.567,0,4.656,2.089,4.656,4.656c0,2.568-2.089,4.657-4.656,4.657   c-2.568,0-4.657-2.089-4.657-4.657C73.44,22.696,75.529,20.607,78.098,20.607z"></path></g></g><g id="SvgjsG1903" featureKey="nameFeature-0" transform="matrix(0.5717843174934387,0,0,0.5717843174934387,124.40895934608334,15.92011398281917)" fill="#111111"><path d="M18.809 15.254000000000001 l-11.465 0 l0 9.8633 l10.02 0 l0 2.5195 l-10.02 0 l0 12.363 l-2.8125 0 l0 -27.246 l14.277 0 l0 2.5 z M28.08208125 40 l0 -27.246 l2.7148 0 l0 27.246 l-2.7148 0 z M57.2386875 15.254000000000001 l-11.465 0 l0 9.8633 l10.02 0 l0 2.5195 l-10.02 0 l0 12.363 l-2.8125 0 l0 -27.246 l14.277 0 l0 2.5 z M80.22246875 12.754000000000001 l0 2.5 l-7.168 0 l0 24.746 l-2.6953 0 l0 -24.746 l-7.168 0 l0 -2.5 l17.031 0 z M106.27315625 12.754000000000001 l-8.9648 14.258 l0 12.988 l-2.7539 0 l0 -12.988 l-8.9648 -14.258 l3.1641 0 l7.1875 11.797 l7.168 -11.797 l3.1641 0 z M142.671875 15.254000000000001 l-11.406 0 l0 9.9023 l10.02 0 l0 2.4805 l-10.02 0 l0 9.8633 l11.406 0 l0 2.5 l-14.219 0 l0 -27.246 l14.219 0 l0 2.5 z M152.66801875 40 l0 -27.246 l2.7148 0 l0 27.246 l-2.7148 0 z M179.050625 40.37109 c-7.5195 0 -13.418 -5.0977 -13.418 -13.926 c0 -8.8672 5.8984 -14.063 13.438 -14.063 c4.8438 0 9.1016 2.1289 11.445 6.3281 l-2.4023 1.2891 c-1.8945 -3.4375 -5.2734 -5.0195 -9.043 -5.0195 c-5.9961 0 -10.703 4.0625 -10.703 11.426 s4.6875 11.406 10.781 11.406 c5.332 0 9.2383 -3.1445 9.7852 -9.0234 l-9.8047 0 l0 -2.3828 l12.5 0 l0 13.594 l-2.2852 0 l0 -5.5859 c-1.8359 3.8086 -5.4688 5.957 -10.293 5.957 z M219.73 12.754000000000001 l2.7148 0 l0 27.246 l-2.7148 0 l0 -12.402 l-14.57 0 l0 12.402 l-2.7539 0 l0 -27.246 l2.7539 0 l0 12.363 l14.57 0 l0 -12.363 z M248.320125 12.754000000000001 l0 2.5 l-7.168 0 l0 24.746 l-2.6953 0 l0 -24.746 l-7.168 0 l0 -2.5 l17.031 0 z M278.879 40.37109 c-5.6055 0 -9.5117 -2.6758 -10.488 -6.9922 l2.7148 -0.66406 c0.74219 3.2617 3.8281 5.2148 7.8516 5.2148 c3.2813 0 6.6797 -1.2891 6.6016 -5.1563 c-0.058594 -3.6719 -3.8867 -4.6094 -7.832 -5.625 c-4.3555 -1.1133 -8.5742 -2.3438 -8.5742 -7.3633 c0 -5.0391 4.2188 -7.4023 8.8477 -7.4023 c4.8047 0 8.8086 2.0703 9.8047 6.4258 l-2.6367 0.68359 c-0.78125 -3.2031 -3.75 -4.668 -7.1094 -4.668 c-2.9883 0 -6.1719 1.3477 -6.1719 4.9805 c0 3.2813 3.2422 4.1992 6.9141 5.1172 c4.4922 1.1133 9.5117 2.3047 9.5117 7.8125 c0 5.3711 -4.4531 7.6367 -9.4336 7.6367 z M308.387 12.754000000000001 c4.7656 0 7.9297 3.6719 7.9297 8.2031 c0 4.5703 -3.1641 8.1641 -7.9297 8.1641 l-7.2656 0 l0 10.879 l-2.7148 0 l0 -27.246 l9.9805 0 z M308.016 26.698999999999998 c3.4766 0 5.5469 -2.3828 5.5469 -5.7617 c0 -3.3008 -2.0703 -5.8008 -5.5469 -5.8008 l-6.8945 0 l0 11.563 l6.8945 0 z M337.4846875 40.37109 c-7.5391 0 -13.438 -5.2344 -13.438 -14.004 c0 -8.75 5.8984 -13.984 13.438 -13.984 c7.4805 0 13.418 5.2344 13.418 13.984 c0 8.7695 -5.9375 14.004 -13.418 14.004 z M337.4846875 37.7539 c5.9375 0 10.684 -4.082 10.684 -11.387 c0 -7.2656 -4.7461 -11.328 -10.684 -11.328 c-5.957 0 -10.742 4.0625 -10.742 11.328 c0 7.3047 4.7852 11.387 10.742 11.387 z M376.03509375 40 l-6.9727 -12.402 l-5.1953 0 l0 12.402 l-2.7148 0 l0 -27.246 l8.75 0 c5.3906 0 8.0078 3.3789 8.0078 7.5391 c0 3.75 -2.207 6.6016 -6.1523 7.1875 l7.4023 12.52 l-3.125 0 z M363.86719375 15.195 l0 10.117 l5.7227 0 c3.8867 0 5.7031 -2.0508 5.7031 -5.0195 c0 -2.9297 -1.8164 -5.0977 -5.7031 -5.0977 l-5.7227 0 z M402.45684375 12.754000000000001 l0 2.5 l-7.168 0 l0 24.746 l-2.6953 0 l0 -24.746 l-7.168 0 l0 -2.5 l17.031 0 z M419.52353125 40.37109 c-5.6055 0 -9.5117 -2.6758 -10.488 -6.9922 l2.7148 -0.66406 c0.74219 3.2617 3.8281 5.2148 7.8516 5.2148 c3.2813 0 6.6797 -1.2891 6.6016 -5.1563 c-0.058594 -3.6719 -3.8867 -4.6094 -7.832 -5.625 c-4.3555 -1.1133 -8.5742 -2.3438 -8.5742 -7.3633 c0 -5.0391 4.2188 -7.4023 8.8477 -7.4023 c4.8047 0 8.8086 2.0703 9.8047 6.4258 l-2.6367 0.68359 c-0.78125 -3.2031 -3.75 -4.668 -7.1094 -4.668 c-2.9883 0 -6.1719 1.3477 -6.1719 4.9805 c0 3.2813 3.2422 4.1992 6.9141 5.1172 c4.4922 1.1133 9.5117 2.3047 9.5117 7.8125 c0 5.3711 -4.4531 7.6367 -9.4336 7.6367 z"></path></g><g id="SvgjsG1904" featureKey="sloganFeature-0" transform="matrix(0.279190331697464,0,0,0.279190331697464,126.84460264345564,57.36140142275741)" fill="#111111"><path d="M4.3652 20 l-3.8086 -13.926 l2.4316 0 l3.0078 11.006 l3.291 -11.006 l2.0117 0 l3.2813 11.006 l3.0273 -11.006 l2.4219 0 l-3.8086 13.926 l-2.9102 0 l-3.0176 -9.6484 l-3.0176 9.6484 l-2.9102 0 z M36.10812890625 6.074 l2.3438 0 l0 13.926 l-2.3438 0 l0 -5.9473 l-6.4648 0 l0 5.9473 l-2.3438 0 l0 -13.926 l2.3438 0 l0 5.918 l6.4648 0 l0 -5.918 z M54.9208734375 8.154 l-5.4102 0 l0 3.8574 l4.7852 0 l0 2.0605 l-4.7852 0 l0 3.8379 l5.4102 0 l0 2.0898 l-7.7734 0 l0 -13.926 l7.7734 0 l0 2.0801 z M70.27689609375 20 l-3.6133 -6.2109 l-1.5039 0 l0 6.2109 l-2.334 0 l0 -13.926 l4.834 0 c3.0176 0 4.3457 1.8066 4.3457 4.043 c0 1.9434 -1.1523 3.252 -2.998 3.584 l4.0137 6.2988 l-2.7441 0 z M65.15969609375 8.047 l0 4.0137 l2.1582 0 c1.709 0 2.4414 -0.80078 2.4414 -1.9922 c0 -1.1816 -0.73242 -2.0215 -2.4414 -2.0215 l-2.1582 0 z M88.083959375 8.154 l-5.4102 0 l0 3.8574 l4.7852 0 l0 2.0605 l-4.7852 0 l0 3.8379 l5.4102 0 l0 2.0898 l-7.7734 0 l0 -13.926 l7.7734 0 l0 2.0801 z M113.5907859375 6.074 l0 2.0801 l-3.4375 0 l0 11.846 l-2.3242 0 l0 -11.846 l-3.4473 0 l0 -2.0801 l9.209 0 z M129.91376171875 20 l-1.1035 -3.0957 l-6.084 0 l-1.0938 3.0957 l-2.4121 0 l5.127 -13.926 l2.8418 0 l5.127 13.926 l-2.4023 0 z M123.43896171875 14.9023 l4.668 0 l-2.334 -6.582 z M141.812528125 17.9102 l4.5996 0 l0 2.0898 l-6.9336 0 l0 -13.926 l2.334 0 l0 11.836 z M161.38718203125 8.154 l-5.4102 0 l0 3.8574 l4.7852 0 l0 2.0605 l-4.7852 0 l0 3.8379 l5.4102 0 l0 2.0898 l-7.7734 0 l0 -13.926 l7.7734 0 l0 2.0801 z M178.7258046875 6.074 l2.334 0 l0 13.926 l-2.6172 0 l-6.8359 -10.625 l0 10.625 l-2.3145 0 l0 -13.926 l2.5879 0 l6.8457 10.557 l0 -10.557 z M197.45064921875 6.074 l0 2.0801 l-3.4375 0 l0 11.846 l-2.3242 0 l0 -11.846 l-3.4473 0 l0 -2.0801 l9.209 0 z M226.47312890625 20 l-2.6172 0 l-1.0156 -1.3086 c-1.2793 0.9375 -2.8418 1.5039 -4.541 1.5039 c-2.6563 0 -4.668 -1.3672 -4.668 -3.9258 c0 -2.0508 1.2988 -3.0566 3.75 -4.5996 l-0.019531 -0.019531 c-1.0352 -1.3379 -1.4453 -2.1387 -1.4453 -3.0176 c0 -0.88867 0.39063 -1.5723 1.0254 -2.041 c0.61523 -0.46875 1.4844 -0.72266 2.4512 -0.72266 c2.0801 0 3.5254 1.1035 3.5254 2.793 c0 1.2695 -0.81055 2.2363 -2.7246 3.3984 l2.8516 3.6035 c0.78125 -1.1328 1.2207 -2.4805 1.2207 -3.6914 l2.0605 0 c0 1.9434 -0.74219 3.8477 -1.9922 5.3223 z M218.41652890625 7.773 c-0.22461 0.21484 -0.36133 0.53711 -0.36133 0.92773 c0 0.55664 0.27344 0.95703 0.9375 1.8359 l0.16602 0.21484 c1.1426 -0.71289 1.7285 -1.3672 1.7285 -2.1094 c0 -0.79102 -0.66406 -1.25 -1.4355 -1.25 c-0.41016 0 -0.77148 0.12695 -1.0352 0.38086 z M218.38722890625 18.3203 c1.2402 0 2.3535 -0.44922 3.2617 -1.1621 l-3.1738 -4.0723 c-1.6699 1.0352 -2.7441 1.7285 -2.7441 3.125 c0 1.416 1.123 2.1094 2.6563 2.1094 z M253.10324609375 6.074 l2.3438 0 l0 13.926 l-2.3438 0 l0 -5.9473 l-6.4648 0 l0 5.9473 l-2.3438 0 l0 -13.926 l2.3438 0 l0 5.918 l6.4648 0 l0 -5.918 z M273.283390625 20 l-1.1035 -3.0957 l-6.084 0 l-1.0938 3.0957 l-2.4121 0 l5.127 -13.926 l2.8418 0 l5.127 13.926 l-2.4023 0 z M266.808590625 14.9023 l4.668 0 l-2.334 -6.582 z M290.29935703125 20 l-3.6133 -6.2109 l-1.5039 0 l0 6.2109 l-2.334 0 l0 -13.926 l4.834 0 c3.0176 0 4.3457 1.8066 4.3457 4.043 c0 1.9434 -1.1523 3.252 -2.998 3.584 l4.0137 6.2988 l-2.7441 0 z M285.18215703125 8.047 l0 4.0137 l2.1582 0 c1.709 0 2.4414 -0.80078 2.4414 -1.9922 c0 -1.1816 -0.73242 -2.0215 -2.4414 -2.0215 l-2.1582 0 z M300.3330203125 20 l0 -13.926 l4.7656 0 c4.3555 0 6.543 2.832 6.543 6.9531 c0 4.1309 -2.1875 6.9727 -6.543 6.9727 l-4.7656 0 z M302.6670203125 17.9102 l2.334 0 c2.8516 0 4.1895 -1.8457 4.1895 -4.8828 c0 -3.0176 -1.3379 -4.873 -4.1895 -4.873 l-2.334 0 l0 9.7559 z M331.72848125 20 l-3.8086 -13.926 l2.4316 0 l3.0078 11.006 l3.291 -11.006 l2.0117 0 l3.2813 11.006 l3.0273 -11.006 l2.4219 0 l-3.8086 13.926 l-2.9102 0 l-3.0176 -9.6484 l-3.0176 9.6484 l-2.9102 0 z M360.72701015625 20.18555 c-4.0039 0 -7.0313 -2.7441 -7.0313 -7.1582 c0 -4.4043 3.0273 -7.1484 7.0313 -7.1484 c3.9941 0 7.0215 2.7441 7.0215 7.1484 c0 4.4141 -3.0273 7.1582 -7.0215 7.1582 z M360.72701015625 18.0176 c2.6367 0 4.6973 -1.8262 4.6973 -4.9902 c0 -3.1348 -2.0605 -4.9707 -4.6973 -4.9707 s-4.6973 1.8359 -4.6973 4.9707 c0 3.1641 2.0605 4.9902 4.6973 4.9902 z M382.9482828125 20 l-3.6133 -6.2109 l-1.5039 0 l0 6.2109 l-2.334 0 l0 -13.926 l4.834 0 c3.0176 0 4.3457 1.8066 4.3457 4.043 c0 1.9434 -1.1523 3.252 -2.998 3.584 l4.0137 6.2988 l-2.7441 0 z M377.8310828125 8.047 l0 4.0137 l2.1582 0 c1.709 0 2.4414 -0.80078 2.4414 -1.9922 c0 -1.1816 -0.73242 -2.0215 -2.4414 -2.0215 l-2.1582 0 z M401.10674609375 20 l-4.6582 -6.1816 l-1.1328 0 l0 6.1816 l-2.334 0 l0 -13.926 l2.334 0 l0 5.6738 l1.1133 0 l4.5801 -5.6738 l2.8613 0 l-5.4297 6.6504 l5.6543 7.2754 l-2.9883 0 z M436.48730078125 20 l-2.3145 0 l-0.91797 -10.996 l-3.9941 10.996 l-1.4648 0 l-3.9746 -10.977 l-0.92773 10.977 l-2.3242 0 l1.1133 -13.926 l3.252 0 l3.584 9.8438 l3.6133 -9.8438 l3.252 0 z M452.4091546875 8.154 l-5.4102 0 l0 3.8574 l4.7852 0 l0 2.0605 l-4.7852 0 l0 3.8379 l5.4102 0 l0 2.0898 l-7.7734 0 l0 -13.926 l7.7734 0 l0 2.0801 z M468.08737734375 8.154 l-5.4102 0 l0 3.8574 l4.7852 0 l0 2.0605 l-4.7852 0 l0 3.8379 l5.4102 0 l0 2.0898 l-7.7734 0 l0 -13.926 l7.7734 0 l0 2.0801 z M483.6777 6.074 l0 2.0801 l-3.4375 0 l0 11.846 l-2.3242 0 l0 -11.846 l-3.4473 0 l0 -2.0801 l9.209 0 z M495.33247578125 20.18555 c-2.9492 0 -5.1563 -1.4063 -5.6055 -3.8672 l2.4023 -0.55664 c0.25391 1.6016 1.5723 2.4805 3.291 2.4805 c1.3574 0 2.5879 -0.57617 2.5684 -2.041 c-0.019531 -1.5234 -1.709 -1.9629 -3.5352 -2.4805 c-2.1094 -0.61523 -4.2773 -1.3184 -4.2773 -3.877 c0 -2.5977 2.1289 -3.9648 4.7754 -3.9648 c2.4414 0 4.7559 1.0254 5.293 3.5254 l-2.2559 0.56641 c-0.3125 -1.4844 -1.4648 -2.1387 -2.9199 -2.1387 c-1.2988 0 -2.5293 0.55664 -2.5293 1.9727 c0 1.2891 1.4746 1.6895 3.1641 2.1582 c2.1777 0.60547 4.6973 1.3477 4.6973 4.1406 c0 2.8809 -2.4121 4.082 -5.0684 4.082 z M524.10103359375 20.18555 c-4.0039 0 -7.0313 -2.7441 -7.0313 -7.1582 c0 -4.4043 3.0273 -7.1484 7.0313 -7.1484 c3.9941 0 7.0215 2.7441 7.0215 7.1484 c0 4.4141 -3.0273 7.1582 -7.0215 7.1582 z M524.10103359375 18.0176 c2.6367 0 4.6973 -1.8262 4.6973 -4.9902 c0 -3.1348 -2.0605 -4.9707 -4.6973 -4.9707 s-4.6973 1.8359 -4.6973 4.9707 c0 3.1641 2.0605 4.9902 4.6973 4.9902 z M544.40820625 6.074 c2.6172 0 4.2871 1.9629 4.2871 4.3848 c0 2.4609 -1.6699 4.3457 -4.2871 4.3457 l-3.2031 0 l0 5.1953 l-2.334 0 l0 -13.926 l5.5371 0 z M544.03710625 12.8125 c1.5625 0 2.3828 -0.95703 2.3828 -2.3828 c0 -1.377 -0.82031 -2.3828 -2.3828 -2.3828 l-2.832 0 l0 4.7656 l2.832 0 z M561.71728828125 6.074 c2.6172 0 4.2871 1.9629 4.2871 4.3848 c0 2.4609 -1.6699 4.3457 -4.2871 4.3457 l-3.2031 0 l0 5.1953 l-2.334 0 l0 -13.926 l5.5371 0 z M561.34618828125 12.8125 c1.5625 0 2.3828 -0.95703 2.3828 -2.3828 c0 -1.377 -0.82031 -2.3828 -2.3828 -2.3828 l-2.832 0 l0 4.7656 l2.832 0 z M579.5536703125 20.18555 c-4.0039 0 -7.0313 -2.7441 -7.0313 -7.1582 c0 -4.4043 3.0273 -7.1484 7.0313 -7.1484 c3.9941 0 7.0215 2.7441 7.0215 7.1484 c0 4.4141 -3.0273 7.1582 -7.0215 7.1582 z M579.5536703125 18.0176 c2.6367 0 4.6973 -1.8262 4.6973 -4.9902 c0 -3.1348 -2.0605 -4.9707 -4.6973 -4.9707 s-4.6973 1.8359 -4.6973 4.9707 c0 3.1641 2.0605 4.9902 4.6973 4.9902 z M601.77494296875 20 l-3.6133 -6.2109 l-1.5039 0 l0 6.2109 l-2.334 0 l0 -13.926 l4.834 0 c3.0176 0 4.3457 1.8066 4.3457 4.043 c0 1.9434 -1.1523 3.252 -2.998 3.584 l4.0137 6.2988 l-2.7441 0 z M596.65774296875 8.047 l0 4.0137 l2.1582 0 c1.709 0 2.4414 -0.80078 2.4414 -1.9922 c0 -1.1816 -0.73242 -2.0215 -2.4414 -2.0215 l-2.1582 0 z M619.49410625 6.074 l0 2.0801 l-3.4375 0 l0 11.846 l-2.3242 0 l0 -11.846 l-3.4473 0 l0 -2.0801 l9.209 0 z M631.64698203125 20.18555 c-2.959 0 -5.2637 -1.6504 -5.2637 -4.9316 l0 -9.1797 l2.3438 0 l0 8.8574 c0 2.2168 1.2793 3.1641 2.9199 3.1641 s2.9395 -0.95703 2.9395 -3.1641 l0 -8.8574 l2.334 0 l0 9.1797 c0 3.2813 -2.3047 4.9316 -5.2734 4.9316 z M654.7668203125 6.074 l2.334 0 l0 13.926 l-2.6172 0 l-6.8359 -10.625 l0 10.625 l-2.3145 0 l0 -13.926 l2.5879 0 l6.8457 10.557 l0 -10.557 z M665.80616484375 20 l0 -13.926 l2.334 0 l0 13.926 l-2.334 0 z M684.531215625 6.074 l0 2.0801 l-3.4375 0 l0 11.846 l-2.3242 0 l0 -11.846 l-3.4473 0 l0 -2.0801 l9.209 0 z M701.54719140625 6.074 l-4.5801 7.2754 l0 6.6504 l-2.3438 0 l0 -6.6211 l-4.5996 -7.3047 l2.6172 0 l3.1445 5.2051 l3.1543 -5.2051 l2.6074 0 z"></path></g>
			</g>
		</svg>
	